<svg width="1em" height="0.83em" viewBox="0 0 12 10" fill="none" xmlns="http://www.w3.org/2000/svg">
<path fill-rule="evenodd" clip-rule="evenodd" d="M6.29321 0.293153C6.48074 0.105447 6.73505 -2.30138e-07 7.00021 -2.18548e-07C7.26538 -2.06957e-07 7.51969 0.105447 7.70721 0.293153L11.7072 4.29816C11.8947 4.48592 12 4.74055 12 5.00604C12 5.27154 11.8947 5.52617 11.7072 5.71393L7.70721 9.71894C7.51861 9.90132 7.26601 10.0022 7.00381 9.99996C6.74162 9.99768 6.4908 9.89238 6.30539 9.70674C6.11999 9.5211 6.01482 9.26997 6.01254 9.00745C6.01026 8.74492 6.11106 8.49201 6.29321 8.30317L8.58621 6.0073L1.00021 6.0073C0.734997 6.0073 0.480643 5.90181 0.293107 5.71404C0.105571 5.52626 0.000213393 5.27159 0.000213404 5.00604C0.000213416 4.7405 0.105571 4.48582 0.293107 4.29805C0.480643 4.11028 0.734997 4.00479 1.00021 4.00479L8.58621 4.00479L6.29321 1.70892C6.10574 1.52116 6.00043 1.26653 6.00043 1.00104C6.00043 0.735541 6.10574 0.480915 6.29321 0.293153Z" fill="white" fill-opacity="0.4"/>
</svg>
