<svg fill="none" xmlns="http://www.w3.org/2000/svg" width="1em" height="1em" viewBox="0 0 20 18"><path fill-rule="evenodd" clip-rule="evenodd" d="M0 12.065V3.016A3.008 3.008 0 0 1 3 0h14c1.657 0 3 1.35 3 3.016v9.049a3.008 3.008 0 0 1-3 3.016h-4.248l-2.606 2.292C8.53 18.795 6 17.641 6 15.482v-.4H3c-1.657 0-3-1.351-3-3.017Zm7.761 2.063c-.338-.63-1-1.058-1.761-1.058H3c-.552 0-1-.45-1-1.005V3.016c0-.555.448-1.005 1-1.005h14c.552 0 1 .45 1 1.005v9.049c0 .555-.448 1.005-1 1.005h-4.248c-.485 0-.953.177-1.318.498L8.83 15.86A.5.5 0 0 1 8 15.482v-.4a2.006 2.006 0 0 0-.239-.954Z" fill="currentColor"/></svg>