<svg width="1em" height="1em" viewBox="0 0 20 21" fill="none" xmlns="http://www.w3.org/2000/svg">
<path d="M11.8434 8.15538C12.2053 8.57252 12.8369 8.61726 13.254 8.2553C13.6712 7.89335 13.7159 7.26176 13.354 6.84462L11.8434 8.15538ZM8.15667 12.8446C7.79471 12.4275 7.16313 12.3827 6.74599 12.7447C6.32885 13.1067 6.28411 13.7382 6.64607 14.1554L8.15667 12.8446ZM11 5.5C11 4.94772 10.5523 4.5 10 4.5C9.44771 4.5 9 4.94772 9 5.5H11ZM9 15.5C8.99999 16.0523 9.44769 16.5 9.99998 16.5C10.5523 16.5 11 16.0523 11 15.5L9 15.5ZM18 10.5C18 14.9183 14.4183 18.5 10 18.5V20.5C15.5228 20.5 20 16.0228 20 10.5H18ZM10 18.5C5.58172 18.5 2 14.9183 2 10.5H0C0 16.0228 4.47715 20.5 10 20.5V18.5ZM2 10.5C2 6.08172 5.58172 2.5 10 2.5V0.5C4.47715 0.5 0 4.97715 0 10.5H2ZM10 2.5C14.4183 2.5 18 6.08172 18 10.5H20C20 4.97715 15.5228 0.5 10 0.5V2.5ZM10 9.5C9.34146 9.5 8.7905 9.32024 8.43338 9.08216C8.06927 8.83942 8 8.6139 8 8.5H6C6 9.49067 6.6023 10.2651 7.32398 10.7463C8.05265 11.232 9.00168 11.5 10 11.5V9.5ZM8 8.5C8 8.3861 8.06927 8.16058 8.43338 7.91784C8.7905 7.67976 9.34146 7.5 10 7.5V5.5C9.00168 5.5 8.05265 5.76796 7.32398 6.25374C6.6023 6.73485 6 7.50933 6 8.5H8ZM10 7.5C10.9038 7.5 11.563 7.83231 11.8434 8.15538L13.354 6.84462C12.5969 5.97209 11.3171 5.5 10 5.5V7.5ZM10 11.5C10.6585 11.5 11.2095 11.6798 11.5666 11.9178C11.9308 12.1606 12 12.3861 12 12.5H14C14 11.5093 13.3977 10.7348 12.676 10.2537C11.9474 9.76796 10.9983 9.5 10 9.5V11.5ZM9 5.5V6.5H11V5.5H9ZM9.00002 14.5L9 15.5L11 15.5L11 14.5L9.00002 14.5ZM10 13.5C9.09625 13.5 8.43699 13.1677 8.15667 12.8446L6.64607 14.1554C7.40317 15.0279 8.68296 15.5 10 15.5L10 13.5ZM12 12.5C12 12.6139 11.9308 12.8394 11.5666 13.0822C11.2095 13.3202 10.6586 13.5 10 13.5V15.5C10.9983 15.5 11.9474 15.232 12.676 14.7463C13.3977 14.2651 14 13.4907 14 12.5H12ZM9 6.5L9.00002 14.5L11 14.5L11 6.5L9 6.5Z" fill="currentColor"/>
</svg>
