<svg width="1em" height="1em" viewBox="0 0 14 14" fill="none" xmlns="http://www.w3.org/2000/svg">
<path d="M2 0C0.895431 0 0 0.89543 0 2V4C0 5.10457 0.89543 6 2 6H4C5.10457 6 6 5.10457 6 4V2C6 0.895431 5.10457 0 4 0H2Z" fill="currentColor"/>
<path d="M2 8C0.895431 8 0 8.89543 0 10V12C0 13.1046 0.89543 14 2 14H4C5.10457 14 6 13.1046 6 12V10C6 8.89543 5.10457 8 4 8H2Z" fill="currentColor"/>
<path d="M8 2C8 0.89543 8.89543 0 10 0H12C13.1046 0 14 0.895431 14 2V4C14 5.10457 13.1046 6 12 6H10C8.89543 6 8 5.10457 8 4V2Z" fill="currentColor"/>
<path d="M8 10C8 8.89543 8.89543 8 10 8H12C13.1046 8 14 8.89543 14 10V12C14 13.1046 13.1046 14 12 14H10C8.89543 14 8 13.1046 8 12V10Z" fill="currentColor"/>
</svg>
