<svg width="1em" height="1em" viewBox="0 0 24 24" fill="none" xmlns="http://www.w3.org/2000/svg">
<path fill-rule="evenodd" clip-rule="evenodd" d="M11.9941 2C10.0163 2 8.08293 2.58649 6.43844 3.6853C4.79395 4.78412 3.51223 6.3459 2.75535 8.17317C1.99847 10.0004 1.80044 12.0111 2.18629 13.9509C2.57214 15.8907 3.52455 17.6725 4.92308 19.0711C6.3216 20.4696 8.10343 21.422 10.0432 21.8079C11.9831 22.1937 13.9937 21.9957 15.821 21.2388C17.6482 20.4819 19.21 19.2002 20.3088 17.5557C21.4077 15.9112 21.9941 13.9778 21.9941 12C21.9943 10.6868 21.7357 9.38634 21.2332 8.17304C20.7307 6.95973 19.9941 5.8573 19.0655 4.92869C18.1368 4.00008 17.0344 3.26349 15.8211 2.76098C14.6078 2.25847 13.3074 1.99989 11.9941 2ZM14.9516 16.1871H14.9693C14.9738 16.1851 14.9782 16.1829 14.9827 16.1807C14.991 16.1766 14.9993 16.1725 15.0074 16.1699C15.3706 16.0519 15.728 15.918 16.0761 15.7606C16.4933 15.5717 16.8946 15.3544 17.2813 15.1088C17.4981 14.9713 17.7092 14.825 17.9158 14.6729C17.9415 14.6538 17.9535 14.633 17.9553 14.5997C17.9597 14.5161 17.9661 14.4328 17.9726 14.3494C17.9757 14.3081 17.9789 14.2668 17.9819 14.2255C17.9831 14.2086 17.9831 14.192 17.9831 14.1752C17.9831 14.1669 17.9831 14.1585 17.9832 14.1501L17.9876 14.139C17.9885 14.1038 17.9893 14.0685 17.9901 14.0333C17.9908 13.998 17.9916 13.9627 17.9925 13.9275C17.9924 13.9121 17.9923 13.8968 17.9921 13.8814C17.9917 13.835 17.9913 13.7884 17.9916 13.7421C17.9916 13.7356 17.9943 13.729 17.9969 13.7224C17.998 13.7197 17.9991 13.717 18 13.7142V13.457C17.9991 13.4546 17.9979 13.4522 17.9968 13.4498C17.9942 13.4444 17.9916 13.4391 17.9916 13.4335C17.9916 13.3952 17.992 13.357 17.9924 13.3188C17.9926 13.2996 17.9928 13.2803 17.993 13.261C17.9925 13.226 17.992 13.191 17.9914 13.156C17.9908 13.1209 17.9903 13.0859 17.9899 13.0509L17.9854 13.0398C17.9847 13.0165 17.984 12.9932 17.9832 12.9699C17.9824 12.9467 17.9816 12.9234 17.981 12.9001L17.9765 12.889C17.9584 12.58 17.9225 12.2731 17.8741 11.9676C17.8134 11.5863 17.7305 11.2094 17.6258 10.8373C17.5158 10.4462 17.3819 10.064 17.2267 9.68888C17.1132 9.41485 16.9877 9.14658 16.8512 8.88319C16.66 8.51471 16.449 8.1582 16.2206 7.8119C16.2011 7.78263 16.1789 7.76223 16.1461 7.74716C15.7821 7.57777 15.4078 7.43366 15.0256 7.31128C14.67 7.19776 14.3086 7.10598 13.9423 7.03414C13.8946 7.0248 13.8469 7.01671 13.7977 7.00837C13.7815 7.00563 13.7651 7.00285 13.7486 7C13.7389 7.01825 13.7291 7.03618 13.7194 7.05399C13.7005 7.08854 13.6819 7.12259 13.6652 7.15741C13.6058 7.28281 13.5475 7.40851 13.4892 7.53426C13.4762 7.56236 13.4632 7.59046 13.4502 7.61857C13.4433 7.6332 13.4399 7.64073 13.4342 7.6441C13.428 7.64767 13.4192 7.64657 13.4005 7.64428C13.3202 7.63453 13.24 7.62477 13.1597 7.61591C13.111 7.61035 13.0621 7.60537 13.0133 7.60039C12.9763 7.59663 12.9394 7.59287 12.9025 7.58886C12.8841 7.58708 12.8656 7.58418 12.8472 7.58127C12.8426 7.58054 12.838 7.57981 12.8334 7.5791L12.777 7.57245C12.7673 7.57201 12.7574 7.57167 12.7476 7.57134C12.7377 7.57101 12.7278 7.57068 12.7181 7.57023L12.6529 7.56358C12.6416 7.56314 12.6303 7.56281 12.619 7.56247C12.6077 7.56214 12.5964 7.56181 12.585 7.56137C12.5711 7.56026 12.5571 7.55926 12.5431 7.55826C12.5292 7.55726 12.5152 7.55627 12.5012 7.55516L12.3899 7.5525C12.3618 7.55272 12.3336 7.55283 12.3055 7.55294C12.2773 7.55305 12.2492 7.55316 12.221 7.55338C12.1733 7.55316 12.1257 7.55305 12.078 7.55294C12.0303 7.55283 11.9827 7.55272 11.935 7.5525C11.9058 7.5525 11.8766 7.55261 11.8473 7.55272C11.8179 7.55283 11.7885 7.55294 11.759 7.55294C11.7419 7.55338 11.7247 7.55372 11.7075 7.55405C11.6903 7.55438 11.6732 7.55471 11.6561 7.55516C11.6421 7.55627 11.6282 7.55726 11.6142 7.55826C11.6002 7.55926 11.5863 7.56026 11.5723 7.56137C11.561 7.56181 11.5497 7.56214 11.5384 7.56247C11.5271 7.56281 11.5157 7.56314 11.5044 7.56358L11.4393 7.57023C11.4295 7.57068 11.4196 7.57101 11.4098 7.57134C11.3999 7.57167 11.39 7.57201 11.3803 7.57245L11.324 7.5791C11.291 7.58235 11.258 7.58541 11.225 7.58846C11.159 7.59457 11.0929 7.60068 11.0273 7.60837C10.9373 7.61901 10.8482 7.63231 10.7586 7.6465C10.7364 7.65005 10.7276 7.64295 10.7187 7.62389C10.65 7.47534 10.5804 7.32724 10.5099 7.17958C10.4945 7.14766 10.4775 7.11652 10.4606 7.08538C10.4521 7.06981 10.4436 7.05424 10.4354 7.03858C10.4145 7 10.4105 6.99778 10.3702 7.00532C10.3133 7.01589 10.2567 7.02721 10.1998 7.03859L10.1844 7.04168C9.89395 7.09977 9.60618 7.17027 9.32195 7.25496C9.05146 7.33522 8.78497 7.42524 8.5238 7.53166C8.41051 7.57779 8.29818 7.62642 8.18593 7.67502C8.12771 7.70023 8.06951 7.72542 8.01121 7.75026C7.98327 7.76223 7.96243 7.78041 7.94558 7.80657C7.75314 8.10233 7.57267 8.40474 7.40506 8.71513C7.2002 9.0947 7.0184 9.48446 6.86054 9.88575C6.66544 10.3802 6.51024 10.887 6.39673 11.4067C6.33687 11.6803 6.28676 11.9552 6.25262 12.2332C6.23621 12.3676 6.22158 12.5019 6.20827 12.6367C6.20275 12.6926 6.19914 12.7485 6.19552 12.8043C6.19392 12.8292 6.19231 12.854 6.19054 12.8788C6.18876 12.8824 6.18743 12.8864 6.18566 12.8899L6.18167 13.0291C6.18078 13.0309 6.18001 13.0328 6.17923 13.0347C6.17846 13.0366 6.17768 13.0384 6.17679 13.0402C6.17591 13.0726 6.17491 13.1048 6.17391 13.1371C6.17291 13.1694 6.17191 13.2016 6.17103 13.234C6.17036 13.2358 6.16981 13.2375 6.16925 13.2393C6.1687 13.2411 6.16815 13.2429 6.16748 13.2446C6.16748 13.4526 6.16748 13.6606 6.16792 13.8685C6.16792 13.8828 6.16867 13.8971 6.16942 13.9114C6.16967 13.9162 6.16992 13.921 6.17014 13.9257C6.17125 13.9287 6.17205 13.932 6.17281 13.935C6.17295 13.9356 6.1731 13.9362 6.17324 13.9368C6.17391 13.9705 6.17469 14.0041 6.17546 14.0377C6.17624 14.0713 6.17701 14.1049 6.17768 14.1386L6.18211 14.1496L6.19542 14.4223L6.19985 14.4334C6.20081 14.4486 6.2018 14.4639 6.2028 14.4791C6.20591 14.527 6.20902 14.575 6.21138 14.6228C6.21227 14.6436 6.22557 14.6534 6.2402 14.664C6.27476 14.6888 6.30917 14.7138 6.34357 14.7388C6.41422 14.79 6.48478 14.8412 6.55636 14.891C6.79891 15.0591 7.04855 15.2161 7.30529 15.3615C7.61213 15.5353 7.9274 15.6923 8.25154 15.8311C8.54951 15.9592 8.85325 16.0723 9.16276 16.1694C9.17117 16.1718 9.17898 16.1763 9.18672 16.1807C9.1904 16.1828 9.19407 16.1848 9.19779 16.1867H9.21553C9.22262 16.1756 9.22957 16.1644 9.23651 16.1532C9.25041 16.1309 9.2643 16.1085 9.27938 16.0869C9.45719 15.8346 9.61815 15.5717 9.76226 15.2985C9.77681 15.2705 9.79114 15.2425 9.80542 15.2147C9.81985 15.1864 9.83423 15.1584 9.84872 15.1305C9.79176 15.105 9.73508 15.08 9.67871 15.0552C9.5635 15.0044 9.44956 14.9542 9.33702 14.9012C9.16897 14.8223 9.00668 14.7319 8.84483 14.6334C8.85025 14.6288 8.85509 14.6245 8.85962 14.6204C8.86547 14.6152 8.87082 14.6104 8.87631 14.6059C8.89868 14.588 8.92104 14.5702 8.94336 14.5524C8.98345 14.5205 9.0234 14.4887 9.06299 14.4565C9.08073 14.4419 9.0958 14.4379 9.11842 14.4485C9.40043 14.5811 9.69042 14.6942 9.98707 14.7886C10.2611 14.876 10.5391 14.9487 10.8225 15.0001C10.8527 15.0055 10.8827 15.0114 10.9127 15.0173C10.959 15.0264 11.0052 15.0354 11.0517 15.0427C11.0942 15.0494 11.137 15.0544 11.1798 15.0593C11.2128 15.0631 11.2459 15.0669 11.2787 15.0715C11.3701 15.0844 11.4614 15.0963 11.5541 15.0972C11.565 15.0986 11.5757 15.0998 11.5865 15.101C11.5973 15.1022 11.608 15.1034 11.6188 15.1048C11.6301 15.1052 11.6413 15.1055 11.6525 15.1059C11.6637 15.1062 11.6749 15.1065 11.6862 15.107C11.7002 15.1081 11.7142 15.1091 11.7281 15.1101C11.7421 15.1111 11.7561 15.1121 11.77 15.1132C11.7874 15.1136 11.8046 15.114 11.8218 15.1143C11.8389 15.1146 11.8561 15.115 11.8734 15.1154H12.3119C12.3292 15.115 12.3463 15.1146 12.3635 15.1143C12.3807 15.114 12.3979 15.1136 12.4152 15.1132C12.4292 15.1121 12.4432 15.1111 12.4571 15.1101C12.4711 15.1091 12.4851 15.1081 12.499 15.107L12.566 15.1043C12.5755 15.1032 12.585 15.1022 12.5946 15.1012C12.6041 15.1002 12.6136 15.0992 12.6232 15.0981C12.6799 15.0981 12.7363 15.0919 12.7926 15.0804C12.8141 15.0762 12.8362 15.0753 12.8583 15.0744C12.8758 15.0737 12.8933 15.073 12.9105 15.0706C12.9571 15.0642 13.0034 15.0568 13.0497 15.0495C13.0766 15.0453 13.1035 15.041 13.1304 15.0369C13.1507 15.0338 13.171 15.0311 13.1913 15.0284C13.2316 15.023 13.272 15.0175 13.3118 15.009C13.3445 15.002 13.3772 14.9951 13.4099 14.9882C13.556 14.9574 13.7019 14.9266 13.8461 14.8893C14.172 14.805 14.4895 14.6937 14.799 14.5611C14.8622 14.5341 14.9247 14.5063 14.9884 14.4779C15.0178 14.4648 15.0474 14.4516 15.0775 14.4383C15.1569 14.5008 15.2376 14.5647 15.3231 14.6325C15.0012 14.8294 14.6651 14.9904 14.3139 15.1265C14.321 15.1407 14.3279 15.1546 14.3347 15.1683C14.3546 15.2084 14.3736 15.2466 14.3937 15.2844C14.525 15.5309 14.6669 15.7703 14.8247 16.0009C14.8423 16.0264 14.86 16.0518 14.8777 16.0772C14.8955 16.1026 14.9132 16.1279 14.9307 16.1534C14.9352 16.1598 14.9393 16.1667 14.9433 16.1736C14.946 16.1781 14.9487 16.1827 14.9516 16.1871ZM14.1146 13.2575C14.1036 13.2585 14.0927 13.2595 14.0816 13.2606C14.0616 13.261 14.0412 13.261 14.0213 13.261C14.0091 13.2597 13.9967 13.2585 13.9844 13.2573C13.9721 13.256 13.9598 13.2548 13.9477 13.2535C13.8616 13.2495 13.7805 13.2242 13.7011 13.1928C13.4949 13.1107 13.3344 12.9719 13.2103 12.7901C13.0848 12.6066 13.0143 12.4026 12.9925 12.1818C12.9913 12.1694 12.9911 12.1568 12.991 12.1442C12.991 12.1391 12.9909 12.1341 12.9908 12.129L12.9863 12.1179C12.9861 12.0946 12.9858 12.0714 12.9855 12.0481C12.9851 12.0248 12.9848 12.0015 12.9846 11.9782L12.989 11.9672C13.0001 11.737 13.0662 11.5233 13.1908 11.33C13.3482 11.0861 13.5637 10.9189 13.851 10.8537C13.8702 10.8492 13.8898 10.8472 13.9093 10.8452C13.9205 10.8441 13.9317 10.8429 13.9428 10.8413C13.9521 10.8402 13.9612 10.838 13.9701 10.8358C13.9723 10.8353 13.9744 10.8347 13.9765 10.8342C13.9871 10.8341 13.9978 10.834 14.0084 10.8338C14.0403 10.8334 14.0723 10.833 14.1042 10.8333C14.1094 10.8333 14.1145 10.8356 14.1196 10.838C14.1223 10.8392 14.125 10.8404 14.1277 10.8413C14.2754 10.8453 14.4106 10.8923 14.537 10.9659C14.7241 11.0746 14.8638 11.2289 14.9653 11.4195C15.0908 11.6545 15.1311 11.9064 15.1085 12.1685C15.085 12.4381 14.9919 12.6819 14.8163 12.8903C14.6687 13.0655 14.4851 13.1852 14.2598 13.2371C14.2354 13.2427 14.2103 13.2459 14.1854 13.2492C14.1727 13.2508 14.1601 13.2525 14.1476 13.2544C14.1366 13.2555 14.1256 13.2565 14.1146 13.2575ZM9.99844 10.8413C10.0124 10.8393 10.0264 10.8373 10.0403 10.8351C10.0512 10.835 10.062 10.8349 10.073 10.8347C10.1061 10.8343 10.1395 10.8339 10.1729 10.8342C10.1772 10.8342 10.1818 10.8366 10.1863 10.839C10.1882 10.84 10.1901 10.841 10.1919 10.8418C10.3578 10.8449 10.5068 10.9021 10.6433 10.9912C10.9267 11.1761 11.0885 11.443 11.1559 11.7707C11.1642 11.8114 11.1682 11.8529 11.1722 11.8943C11.1741 11.913 11.1759 11.9317 11.1781 11.9503L11.1825 11.9614C11.1852 12.1135 11.1737 12.2642 11.1329 12.4119C11.0796 12.6039 10.9896 12.7755 10.8548 12.9236C10.7107 13.0815 10.5369 13.1897 10.3276 13.2375C10.3033 13.243 10.2785 13.2462 10.2537 13.2493C10.2422 13.2508 10.2308 13.2523 10.2194 13.2539C10.2072 13.2553 10.1949 13.2565 10.1827 13.2577C10.1703 13.2589 10.158 13.2602 10.1458 13.2615C10.1358 13.2613 10.1257 13.2612 10.1157 13.261C10.1056 13.2609 10.0955 13.2608 10.0855 13.2606C10.0744 13.2595 10.0635 13.2585 10.0525 13.2575C10.0415 13.2565 10.0305 13.2555 10.0194 13.2544C9.86158 13.2411 9.7188 13.1852 9.58755 13.0983C9.37249 12.9555 9.22794 12.7569 9.13704 12.5174C9.06476 12.3268 9.04082 12.1286 9.05856 11.9264C9.08294 11.6501 9.17961 11.4014 9.3623 11.1907C9.50995 11.02 9.69353 10.9038 9.91612 10.8551C9.94319 10.8492 9.97085 10.8452 9.99844 10.8413Z" fill="currentColor"/>
</svg>
