<svg fill="none" xmlns="http://www.w3.org/2000/svg" width="1em" height="1em" viewBox="0 0 16 16"><path d="M6.433 5.418c.155-.103.346-.196.567-.267v1.698a2.305 2.305 0 0 1-.567-.267C6.07 6.34 6 6.114 6 6c0-.114.07-.34.433-.582ZM9 10.849V9.151c.22.071.412.164.567.267.364.243.433.468.433.582 0 .114-.07.34-.433.582A2.305 2.305 0 0 1 9 10.85Z" fill="#DFE1EE" fill-opacity=".6"/><path fill-rule="evenodd" clip-rule="evenodd" d="M8 16A8 8 0 1 0 8 0a8 8 0 0 0 0 16ZM9 3a1 1 0 0 0-2 0v.092a4.535 4.535 0 0 0-1.676.662C4.602 4.234 4 5.009 4 6c0 .99.602 1.765 1.324 2.246.48.32 1.054.545 1.676.662v1.941c-.391-.127-.68-.317-.843-.504a1 1 0 0 0-1.51 1.31c.562.649 1.413 1.076 2.353 1.253V13a1 1 0 1 0 2 0v-.092a4.535 4.535 0 0 0 1.676-.662C11.398 11.766 12 10.991 12 10c0-.99-.602-1.765-1.324-2.246A4.535 4.535 0 0 0 9 7.092V5.151c.391.127.68.317.843.504a1 1 0 1 0 1.511-1.31C10.791 3.696 9.94 3.269 9 3.092V3Z" fill="currentColor"/></svg>