<svg width="1em" height="1em" viewBox="0 0 20 21" fill="none" xmlns="http://www.w3.org/2000/svg">
<path d="M8.00003 8.5H3.2361C1.74934 8.5 0.782345 10.0646 1.44725 11.3944L4.94725 18.3944C5.28603 19.072 5.97856 19.5 6.7361 19.5H10.7538C10.9173 19.5 11.0803 19.4799 11.2389 19.4403L15 18.5M8.00003 8.5V3.5C8.00003 2.39543 8.89546 1.5 10 1.5H10.0955C10.5951 1.5 11 1.90497 11 2.40453C11 3.11883 11.2115 3.81715 11.6077 4.41149L15 9.5V18.5M8.00003 8.5H10M15 18.5H17C18.1046 18.5 19 17.6046 19 16.5V10.5C19 9.39543 18.1046 8.5 17 8.5H14.5" stroke="#75808A" stroke-width="2" stroke-linecap="round" stroke-linejoin="round"/>
</svg>
