<svg width="1em" height="1em" viewBox="0 0 32 32" fill="none" xmlns="http://www.w3.org/2000/svg">
<path fill-rule="evenodd" clip-rule="evenodd" d="M16.0003 29.3334C23.3641 29.3334 29.3337 23.3639 29.3337 16.0001C29.3337 8.63628 23.3641 2.66675 16.0003 2.66675C8.63653 2.66675 2.66699 8.63628 2.66699 16.0001C2.66699 23.3639 8.63653 29.3334 16.0003 29.3334ZM6.667 15.9938C6.67097 13.0581 9.10411 10.6721 12.1442 10.6668C15.1862 10.675 17.6129 13.0635 17.6169 15.9933C17.6208 18.9314 15.1902 21.3344 12.1397 21.3334C9.09518 21.3324 6.66303 18.9329 6.667 15.9938ZM18.0388 16.062C18.0378 16.2384 18.0463 16.4753 18.0651 16.7112C18.0904 17.0225 18.1306 17.3324 18.1887 17.6398C18.2641 18.0391 18.3674 18.4316 18.5083 18.814C18.6606 19.2278 18.8522 19.6227 19.1068 19.9867C19.3018 20.2656 19.5281 20.516 19.808 20.7181C20.0422 20.8873 20.2998 21.0062 20.5891 21.056C20.8437 21.1 21.0928 21.0763 21.3374 20.9975C21.6104 20.91 21.8466 20.7616 22.06 20.5765C22.3042 20.3647 22.5032 20.1167 22.6758 19.8475C22.925 19.4588 23.1096 19.0417 23.254 18.6066C23.3721 18.2508 23.4594 17.8878 23.523 17.519C23.577 17.2057 23.6133 16.891 23.6331 16.5739C23.651 16.2921 23.6565 16.0103 23.648 15.7284C23.6396 15.4481 23.6177 15.1691 23.5835 14.8902C23.5244 14.4146 23.4277 13.9471 23.2843 13.4884C23.1528 13.0683 22.9835 12.6637 22.7572 12.2833C22.5682 11.9652 22.3458 11.6722 22.063 11.4257C21.8426 11.2333 21.5975 11.0801 21.3131 10.9945C20.9112 10.8737 20.5196 10.9085 20.1415 11.0854C19.8755 11.2096 19.6497 11.3865 19.4492 11.5954C19.1604 11.8956 18.94 12.2402 18.7564 12.6086C18.5391 13.0451 18.3857 13.5029 18.2716 13.9742C18.2046 14.2517 18.1525 14.532 18.1153 14.8148C18.0636 15.2098 18.0369 15.6052 18.0388 16.062ZM23.9897 16.9853C23.9749 16.6604 23.9639 16.3351 23.9669 16.0576C23.9659 15.5433 23.9818 15.0783 24.0156 14.6142C24.0349 14.3377 24.0612 14.0622 24.095 13.7871C24.1312 13.4913 24.1768 13.1969 24.2369 12.9049C24.2944 12.6255 24.3634 12.349 24.4642 12.0807C24.5148 11.9458 24.5719 11.8139 24.6503 11.6921C24.6964 11.621 24.748 11.5543 24.8175 11.5026C24.9297 11.4189 25.0364 11.4194 25.149 11.5026C25.2036 11.5427 25.2468 11.5939 25.286 11.6481C25.3515 11.7394 25.4021 11.839 25.4463 11.9415C25.5584 12.2006 25.6324 12.4708 25.6949 12.7444C25.7926 13.1722 25.8547 13.6058 25.9018 14.0414C25.9321 14.3232 25.9539 14.606 25.9698 14.8888C25.9857 15.172 25.9951 15.4553 25.9986 15.7391C26.0055 16.2708 25.9911 16.8021 25.9549 17.3328C25.9366 17.6045 25.9122 17.8757 25.8805 18.1459C25.8418 18.4736 25.7917 18.7999 25.7237 19.1233C25.6676 19.3902 25.6016 19.6541 25.5063 19.9103C25.4492 20.0635 25.3842 20.2129 25.2894 20.3483C25.2502 20.4043 25.2061 20.4561 25.151 20.4986C25.0433 20.5817 24.9222 20.5817 24.8145 20.4986C24.7713 20.4657 24.7346 20.4266 24.7019 20.3835C24.6274 20.2864 24.5714 20.1791 24.5227 20.0674C24.4056 19.7982 24.3297 19.5168 24.2657 19.2321C24.1674 18.7941 24.1049 18.3509 24.0587 17.9057C24.027 17.5997 24.0041 17.2927 23.9897 16.9853Z" fill="currentColor"/>
</svg>
