<svg viewBox="0 0 12 12" width="1em" height="1em" fill="none" xmlns="http://www.w3.org/2000/svg">
<path fill-rule="evenodd" clip-rule="evenodd" d="M7.40039 1.7999C7.40039 1.0267 6.77358 0.399902 6.00039 0.399902C5.22719 0.399902 4.60039 1.0267 4.60039 1.7999V4.5999H1.80039C1.02719 4.5999 0.400391 5.2267 0.400391 5.9999C0.400391 6.7731 1.02719 7.3999 1.80039 7.3999H4.60039V10.1999C4.60039 10.9731 5.22719 11.5999 6.00039 11.5999C6.77358 11.5999 7.40039 10.9731 7.40039 10.1999V7.3999H10.2004C10.9736 7.3999 11.6004 6.7731 11.6004 5.9999C11.6004 5.2267 10.9736 4.5999 10.2004 4.5999H7.40039V1.7999Z" fill="currentColor"/>
</svg>
