<svg width="1em" height="0.63em" viewBox="0 0 22 14" fill="none" xmlns="http://www.w3.org/2000/svg">
<path d="M1.71996 2.65C1.91552 2.70742 2.10351 2.78799 2.27996 2.89C2.89978 3.25993 3.60814 3.45525 4.32996 3.45525C5.05178 3.45525 5.76015 3.25993 6.37996 2.89C6.77042 2.66916 7.21137 2.5531 7.65996 2.5531C8.10855 2.5531 8.5495 2.66916 8.93996 2.89C9.56726 3.2487 10.2773 3.43738 11 3.43738C11.7226 3.43738 12.4327 3.2487 13.06 2.89C13.4504 2.66916 13.8914 2.5531 14.34 2.5531C14.7885 2.5531 15.2295 2.66916 15.62 2.89C16.2537 3.25219 16.97 3.44505 17.7 3.45C18.4051 3.44855 19.0966 3.25494 19.7 2.89C19.8764 2.78799 20.0644 2.70742 20.26 2.65C20.5146 2.57574 20.7292 2.40338 20.8568 2.17083C20.9843 1.93829 21.0142 1.66461 20.94 1.41C20.8657 1.15539 20.6933 0.940714 20.4608 0.813189C20.2282 0.685664 19.9546 0.655741 19.7 0.730001C19.3494 0.8382 19.0135 0.989347 18.7 1.18C18.3814 1.36629 18.019 1.46448 17.65 1.46448C17.2809 1.46448 16.9185 1.36629 16.6 1.18C15.9066 0.791074 15.1249 0.586815 14.33 0.586815C13.535 0.586815 12.7533 0.791074 12.06 1.18C11.738 1.36705 11.3723 1.46558 11 1.46558C10.6276 1.46558 10.2619 1.36705 9.93996 1.18C9.2466 0.791074 8.46495 0.586815 7.66996 0.586815C6.87497 0.586815 6.09332 0.791074 5.39996 1.18C5.08139 1.36629 4.719 1.46448 4.34996 1.46448C3.98092 1.46448 3.61853 1.36629 3.29996 1.18C2.98645 0.989347 2.65057 0.8382 2.29996 0.730001C2.04535 0.655741 1.77167 0.685664 1.53913 0.813189C1.30658 0.940714 1.13422 1.15539 1.05996 1.41C0.9857 1.66461 1.01562 1.93829 1.14315 2.17083C1.27067 2.40338 1.48535 2.57574 1.73996 2.65H1.71996ZM19.72 10.73C19.3694 10.8382 19.0335 10.9893 18.72 11.18C18.4014 11.3663 18.039 11.4645 17.67 11.4645C17.3009 11.4645 16.9385 11.3663 16.62 11.18C15.9266 10.7911 15.1449 10.5868 14.35 10.5868C13.555 10.5868 12.7733 10.7911 12.08 11.18C11.758 11.3671 11.3923 11.4656 11.02 11.4656C10.6476 11.4656 10.2819 11.3671 9.95996 11.18C9.26661 10.7911 8.48495 10.5868 7.68996 10.5868C6.89497 10.5868 6.11332 10.7911 5.41996 11.18C5.10139 11.3663 4.739 11.4645 4.36996 11.4645C4.00092 11.4645 3.63853 11.3663 3.31996 11.18C3.00645 10.9893 2.67057 10.8382 2.31996 10.73C2.19389 10.6932 2.06182 10.6817 1.93127 10.6959C1.80073 10.7102 1.67427 10.75 1.55913 10.8132C1.44398 10.8763 1.3424 10.9615 1.26019 11.0639C1.17797 11.1663 1.11673 11.2839 1.07996 11.41C1.04319 11.5361 1.03161 11.6681 1.04589 11.7987C1.06016 11.9292 1.1 12.0557 1.16315 12.1708C1.22629 12.286 1.3115 12.3876 1.4139 12.4698C1.5163 12.552 1.63389 12.6132 1.75996 12.65C1.95552 12.7074 2.14351 12.788 2.31996 12.89C2.93978 13.2599 3.64814 13.4553 4.36996 13.4553C5.09178 13.4553 5.80015 13.2599 6.41996 12.89C6.81042 12.6692 7.25137 12.5531 7.69996 12.5531C8.14855 12.5531 8.5895 12.6692 8.97996 12.89C9.60726 13.2487 10.3173 13.4374 11.04 13.4374C11.7626 13.4374 12.4727 13.2487 13.1 12.89C13.4904 12.6692 13.9314 12.5531 14.38 12.5531C14.8285 12.5531 15.2695 12.6692 15.66 12.89C16.2937 13.2522 17.01 13.4451 17.74 13.45C18.4451 13.4485 19.1366 13.2549 19.74 12.89C19.9164 12.788 20.1044 12.7074 20.3 12.65C20.5546 12.5757 20.7692 12.4034 20.8968 12.1708C21.0243 11.9383 21.0542 11.6646 20.98 11.41C20.9057 11.1554 20.7333 10.9407 20.5008 10.8132C20.2682 10.6857 19.9946 10.6557 19.74 10.73H19.72ZM19.72 5.73C19.3694 5.8382 19.0335 5.98935 18.72 6.18C18.4014 6.3663 18.039 6.46448 17.67 6.46448C17.3009 6.46448 16.9385 6.3663 16.62 6.18C15.9266 5.79107 15.1449 5.58682 14.35 5.58682C13.555 5.58682 12.7733 5.79107 12.08 6.18C11.758 6.36705 11.3923 6.46558 11.02 6.46558C10.6476 6.46558 10.2819 6.36705 9.95996 6.18C9.26661 5.79107 8.48495 5.58682 7.68996 5.58682C6.89497 5.58682 6.11332 5.79107 5.41996 6.18C5.10139 6.3663 4.739 6.46448 4.36996 6.46448C4.00092 6.46448 3.63853 6.3663 3.31996 6.18C3.00645 5.98935 2.67057 5.8382 2.31996 5.73C2.18902 5.68057 2.04917 5.65917 1.90944 5.66719C1.76971 5.67521 1.63322 5.71248 1.5088 5.77657C1.38438 5.84067 1.2748 5.93017 1.18715 6.03928C1.0995 6.14839 1.03573 6.27469 0.999961 6.41C0.963191 6.53607 0.951612 6.66815 0.965885 6.79869C0.980159 6.92923 1.02 7.05569 1.08315 7.17083C1.14629 7.28598 1.2315 7.38756 1.3339 7.46977C1.4363 7.55199 1.55389 7.61323 1.67996 7.65C1.87552 7.70742 2.06351 7.788 2.23996 7.89C2.85978 8.25993 3.56814 8.45525 4.28996 8.45525C5.01178 8.45525 5.72015 8.25993 6.33996 7.89C6.73042 7.66916 7.17137 7.5531 7.61996 7.5531C8.06855 7.5531 8.5095 7.66916 8.89996 7.89C9.52726 8.2487 10.2373 8.43738 10.96 8.43738C11.6826 8.43738 12.3927 8.2487 13.02 7.89C13.4104 7.66916 13.8514 7.5531 14.3 7.5531C14.7485 7.5531 15.1895 7.66916 15.58 7.89C16.2137 8.25219 16.93 8.44505 17.66 8.45C18.3651 8.44855 19.0566 8.25494 19.66 7.89C19.8364 7.788 20.0244 7.70742 20.22 7.65C20.4746 7.57574 20.6892 7.40338 20.8168 7.17083C20.9443 6.93829 20.9742 6.66461 20.9 6.41C20.8257 6.15539 20.6533 5.94071 20.4208 5.81319C20.1882 5.68566 19.9146 5.65574 19.66 5.73H19.72Z" fill="currentColor"/>
</svg>
