<svg width="1em" height="1em" viewBox="0 0 16 16" fill="none" xmlns="http://www.w3.org/2000/svg">
<path fill-rule="evenodd" clip-rule="evenodd" d="M6.20005 2.5998C4.21182 2.5998 2.60005 4.21158 2.60005 6.1998C2.60005 8.18803 4.21182 9.7998 6.20005 9.7998C8.18827 9.7998 9.80005 8.18803 9.80005 6.1998C9.80005 4.21158 8.18827 2.5998 6.20005 2.5998ZM0.800049 6.1998C0.800049 3.21747 3.21771 0.799805 6.20005 0.799805C9.18239 0.799805 11.6 3.21747 11.6 6.1998C11.6 7.36605 11.2303 8.44595 10.6017 9.32869L14.9364 13.6634C15.2879 14.0149 15.2879 14.5847 14.9364 14.9362C14.585 15.2877 14.0151 15.2877 13.6637 14.9362L9.32893 10.6015C8.44619 11.2301 7.3663 11.5998 6.20005 11.5998C3.21771 11.5998 0.800049 9.18214 0.800049 6.1998Z" fill="currentColor"/>
</svg>
