<svg width="1em" height="1em" viewBox="0 0 24 24" fill="none" xmlns="http://www.w3.org/2000/svg">
  <path fill-rule="evenodd" clip-rule="evenodd" d="M12.8034 6.52163C12.2347 7.42386 12.0427 8.48223 12.0427 8.98458C12.0427 9.31555 11.8774 9.62497 11.6015 9.81052C11.3256 9.99607 10.975 10.0336 10.6657 9.91067C10.4633 9.83028 10.2379 9.74855 9.99416 9.66018C9.3627 9.43123 8.60828 9.1577 7.81393 8.74741C7.00721 8.33071 6.12814 7.76479 5.13243 6.92449C5.14479 7.2996 5.22821 7.64315 5.36838 7.96153C5.69561 8.70479 6.38946 9.43964 7.53843 10.124C7.85278 10.3113 8.03945 10.6538 8.02543 11.0176C8.01141 11.3814 7.79893 11.7087 7.47109 11.8716L7.46999 11.8721L7.46879 11.8727L7.46611 11.874L7.45962 11.8772L7.44209 11.8856C7.42841 11.892 7.41075 11.9002 7.38923 11.9099C7.34619 11.9292 7.28762 11.9544 7.21452 11.9835C7.06847 12.0415 6.86343 12.1152 6.60754 12.1878C6.33843 12.2642 6.01076 12.34 5.63457 12.3946C5.84923 13.1518 6.32765 13.6244 6.84318 13.9814C7.14633 14.1913 7.43962 14.3458 7.73438 14.5011C7.8077 14.5398 7.88111 14.5784 7.95479 14.618C8.11576 14.7045 8.3274 14.8214 8.50241 14.9605C8.63748 15.0678 9.0303 15.4011 9.0303 15.9666C9.0303 16.3282 8.8652 16.61 8.76069 16.7606C8.63843 16.9368 8.48411 17.0958 8.32254 17.2348C7.99658 17.5153 7.55902 17.7848 7.04024 18.0055C6.4429 18.2597 5.71366 18.4596 4.88005 18.5316C4.94834 18.568 5.02092 18.6028 5.09791 18.6359C5.82879 18.9505 6.89767 19.0792 8.18531 18.963C10.7383 18.7325 13.7669 17.5752 15.8485 15.7611C17.4443 13.9302 18.1202 12.1188 18.4014 10.7762C18.5437 10.0971 18.5852 9.53653 18.592 9.15388C18.5955 8.96274 18.5902 8.81667 18.5847 8.72322C18.582 8.67652 18.5792 8.64305 18.5774 8.62377L18.5756 8.60565C18.546 8.36195 18.6079 8.1154 18.7496 7.91418L18.5759 8.60786L18.5761 8.60958L18.7496 7.91418L20.5967 8.75995C20.5814 8.78314 20.6106 8.73918 20.5967 8.75995C20.5967 8.75995 20.603 9.0231 20.6 9.18931C20.5912 9.67942 20.5388 10.3656 20.3676 11.1827C20.0244 12.8207 19.2047 14.9791 17.3186 17.1218C17.2909 17.1534 17.2611 17.1832 17.2296 17.211C14.7912 19.3627 11.3182 20.6832 8.36711 20.9496C6.89305 21.0827 5.4514 20.9621 4.29944 20.4663C3.1066 19.9529 2.18658 19.0074 2.00776 17.5864C1.96844 17.2739 2.08002 16.9613 2.30874 16.7432C2.53747 16.5251 2.85647 16.4271 3.16923 16.4789C4.47556 16.6951 5.537 16.475 6.24939 16.1719C6.32041 16.1416 6.44996 16.08 6.44996 16.08C6.44996 16.08 5.95348 15.7971 5.69466 15.6178C4.63507 14.8841 3.50753 13.6439 3.50753 11.4782C3.50753 10.9273 3.9571 10.4807 4.51167 10.4807C4.58469 10.4807 4.6563 10.4793 4.72642 10.4768C4.21486 9.96252 3.80639 9.39235 3.52836 8.76083C2.96469 7.48054 2.99415 6.07765 3.57935 4.62442C3.70471 4.31312 3.97913 4.08521 4.30978 4.01779C4.64042 3.95038 4.98304 4.05249 5.22171 4.28956C6.66496 5.72318 7.79678 6.4901 8.74046 6.97753C9.28259 7.25755 9.74749 7.44208 10.2125 7.6134C10.3737 6.93367 10.6553 6.17046 11.1013 5.46294C11.9251 4.15609 13.3466 3 15.5572 3C16.9285 3 17.8108 3.67125 18.3664 4.1313C18.4334 4.18674 18.4915 4.23523 18.5425 4.27783C18.6709 4.3851 18.7547 4.45503 18.8229 4.50449C19.2794 4.28957 19.6916 4.13898 20.0581 4.06961C20.4477 3.99586 21.0091 3.97325 21.4715 4.34092C21.9579 4.72778 22.0142 5.28425 21.9975 5.61384C21.98 5.95877 21.8767 6.30419 21.7679 6.592C21.5459 7.17992 21.1926 7.80485 20.9172 8.25547C20.7965 8.45284 20.6851 8.62595 20.5967 8.75995C20.6143 8.97769 20.5948 8.73939 20.5967 8.75995L18.7496 7.91418L18.7508 7.91254L18.7565 7.90428L18.7815 7.8681C18.8039 7.8356 18.837 7.78694 18.8782 7.72501C18.961 7.60085 19.0753 7.42496 19.2005 7.22012C19.3785 6.92901 19.5642 6.60222 19.7131 6.2931C19.6527 6.32121 19.5886 6.35198 19.5209 6.38564C19.5073 6.3924 19.4935 6.39885 19.4796 6.40499C18.8652 6.67631 18.3117 6.51727 17.9231 6.29868C17.6548 6.14775 17.3809 5.91658 17.1831 5.7497C17.1461 5.71843 17.1117 5.68941 17.0805 5.6636C16.6103 5.27428 16.1942 4.99486 15.5572 4.99486C14.1798 4.99486 13.3419 5.66739 12.8034 6.52163Z" fill="currentColor"/>
</svg>
